{
  "accessors": [
    {
      "bufferView": 1,
      "componentType": 5126,
      "count": 47771,
      "max": [
        1.1672461032867432,
        0.7967915534973145,
        0.965416669845581
      ],
      "min": [
        0.2934073507785797,
        0.08550608158111572,
        0.0
      ],
      "type": "VEC3"
    },
    {
      "bufferView": 1,
      "byteOffset": 573252,
      "componentType": 5126,
      "count": 47771,
      "max": [
        0.9999992251396179,
        0.9999940395355225,
        0.9946365356445313
      ],
      "min": [
        -0.9999964833259583,
        -0.9998296499252319,
        -0.9999529123306274
      ],
      "type": "VEC3"
    },
    {
      "bufferView": 0,
      "componentType": 5125,
      "count": 284970,
      "type": "SCALAR"
    },
    {
      "bufferView": 1,
      "byteOffset": 1146504,
      "componentType": 5126,
      "count": 65532,
      "max": [
        1.4510996341705322,
        0.8067219853401184,
        2.2771942615509033
      ],
      "min": [
        0.0,
        0.0,
        0.8365656137466431
      ],
      "type": "VEC3"
    },
    {
      "bufferView": 1,
      "byteOffset": 1932888,
      "componentType": 5126,
      "count": 65532,
      "max": [
        0.9999952912330627,
        0.9999985694885254,
        0.999980628490448
      ],
      "min": [
        -0.9999953508377075,
        -0.9999392032623291,
        -0.9997093677520752
      ],
      "type": "VEC3"
    },
    {
      "bufferView": 0,
      "byteOffset": 1139880,
      "componentType": 5125,
      "count": 368664,
      "type": "SCALAR"
    },
    {
      "bufferView": 1,
      "byteOffset": 2719272,
      "componentType": 5126,
      "count": 24261,
      "max": [
        1.460646152496338,
        0.6404787302017212,
        2.276144504547119
      ],
      "min": [
        0.0007547140121459961,
        0.004432260990142822,
        0.8834681510925293
      ],
      "type": "VEC3"
    },
    {
      "bufferView": 1,
      "byteOffset": 3010404,
      "componentType": 5126,
      "count": 24261,
      "max": [
        0.9999918341636658,
        0.9999392628669739,
        0.9997056722640991
      ],
      "min": [
        -0.999967634677887,
        -0.9994357228279114,
        -0.9994651675224304
      ],
      "type": "VEC3"
    },
    {
      "bufferView": 0,
      "byteOffset": 2614536,
      "componentType": 5125,
      "count": 106824,
      "type": "SCALAR"
    }
  ],
  "asset": {
    "extras": {
      "author": "Osama Elhadidi (https://sketchfab.com/osamaelhadidi)",
      "license": "CC-BY-4.0 (http://creativecommons.org/licenses/by/4.0/)",
      "source": "https://sketchfab.com/3d-models/06-torso-27cc1020d63e4d37b38d259378e39d3a",
      "title": "06 Torso"
    },
    "generator": "Sketchfab-12.67.0",
    "version": "2.0"
  },
  "bufferViews": [
    {
      "buffer": 0,
      "byteLength": 3041832,
      "name": "floatBufferViews",
      "target": 34963
    },
    {
      "buffer": 0,
      "byteLength": 3301536,
      "byteOffset": 3041832,
      "byteStride": 12,
      "name": "floatBufferViews",
      "target": 34962
    }
  ],
  "buffers": [
    {
      "byteLength": 6343368,
      "uri": "scene.bin"
    }
  ],
  "materials": [
    {
      "doubleSided": true,
      "name": "material_0",
      "pbrMetallicRoughness": {
        "metallicFactor": 0.0,
        "roughnessFactor": 0.6
      }
    }
  ],
  "meshes": [
    {
      "name": "Object_0",
      "primitives": [
        {
          "attributes": {
            "NORMAL": 1,
            "POSITION": 0
          },
          "indices": 2,
          "material": 0,
          "mode": 4
        }
      ]
    },
    {
      "name": "Object_1",
      "primitives": [
        {
          "attributes": {
            "NORMAL": 4,
            "POSITION": 3
          },
          "indices": 5,
          "material": 0,
          "mode": 4
        }
      ]
    },
    {
      "name": "Object_2",
      "primitives": [
        {
          "attributes": {
            "NORMAL": 7,
            "POSITION": 6
          },
          "indices": 8,
          "material": 0,
          "mode": 4
        }
      ]
    }
  ],
  "nodes": [
    {
      "children": [
        1
      ],
      "matrix": [
        1.0,
        0.0,
        0.0,
        0.0,
        0.0,
        2.220446049250313e-16,
        -1.0,
        0.0,
        0.0,
        1.0,
        2.220446049250313e-16,
        0.0,
        0.0,
        0.0,
        0.0,
        1.0
      ],
      "name": "Sketchfab_model"
    },
    {
      "children": [
        2
      ],
      "matrix": [
        1.0,
        0.0,
        0.0,
        0.0,
        0.0,
        1.0,
        0.0,
        0.0,
        0.0,
        0.0,
        1.0,
        0.0,
        -0.7303223609924316,
        -0.4330330193042755,
        -1.0122748613357544,
        1.0
      ],
      "name": "06 torso.OBJ.cleaner.gles"
    },
    {
      "children": [
        3,
        4,
        5
      ],
      "name": "Object_2"
    },
    {
      "mesh": 0,
      "name": "Object_3"
    },
    {
      "mesh": 1,
      "name": "Object_4"
    },
    {
      "mesh": 2,
      "name": "Object_5"
    }
  ],
  "scene": 0,
  "scenes": [
    {
      "name": "Sketchfab_Scene",
      "nodes": [
        0
      ]
    }
  ]
}
